<?xml version="1.0" encoding="UTF-8" standalone="no"?>
<!DOCTYPE svg PUBLIC "-//W3C//DTD SVG 1.1//EN"
 "http://www.w3.org/Graphics/SVG/1.1/DTD/svg11.dtd">
<!-- Generated by graphviz version 2.44.0 ()
 -->
<!-- Title: srcs Pages: 1 -->
<svg width="252pt" height="132pt"
 viewBox="0.00 0.00 252.00 132.00" xmlns="http://www.w3.org/2000/svg" xmlns:xlink="http://www.w3.org/1999/xlink">
<g id="graph0" class="graph" transform="scale(1 1) rotate(0) translate(4 128)">
<title>srcs</title>
<polygon fill="white" stroke="transparent" points="-4,4 -4,-128 248,-128 248,4 -4,4"/>
<g id="clust1" class="cluster">
<title>clusterdir_b73b02d482d1c4a3db20c3d9ad52d395</title>
<g id="a_clust1"><a xlink:href="dir_b73b02d482d1c4a3db20c3d9ad52d395.html" target="_top">
<polygon fill="#eeeeff" stroke="black" points="8,-64 8,-116 236,-116 236,-64 8,-64"/>
</a>
</g>
</g>
<!-- dir_b73b02d482d1c4a3db20c3d9ad52d395 -->
<g id="node1" class="node">
<title>dir_b73b02d482d1c4a3db20c3d9ad52d395</title>
<text text-anchor="middle" x="201" y="-87.5" font-family="Helvetica,sans-Serif" font-size="10.00">srcs</text>
</g>
<!-- dir_6171f02b744a82290a33ade69a516b18 -->
<g id="node2" class="node">
<title>dir_6171f02b744a82290a33ade69a516b18</title>
<g id="a_node2"><a xlink:href="dir_6171f02b744a82290a33ade69a516b18.html" target="_top" xlink:title="gbclodo">
<polygon fill="white" stroke="red" points="156,-108 102,-108 102,-72 156,-72 156,-108"/>
<text text-anchor="middle" x="129" y="-87.5" font-family="Helvetica,sans-Serif" font-size="10.00">gbclodo</text>
</a>
</g>
</g>
<!-- dir_09e761304027c904456130627fd4dcf5 -->
<g id="node4" class="node">
<title>dir_09e761304027c904456130627fd4dcf5</title>
<g id="a_node4"><a xlink:href="dir_09e761304027c904456130627fd4dcf5.html" target="_top" xlink:title="includes">
<polygon fill="none" stroke="black" points="116,-36 62,-36 62,0 116,0 116,-36"/>
<text text-anchor="middle" x="89" y="-15.5" font-family="Helvetica,sans-Serif" font-size="10.00">includes</text>
</a>
</g>
</g>
<!-- dir_6171f02b744a82290a33ade69a516b18&#45;&gt;dir_09e761304027c904456130627fd4dcf5 -->
<g id="edge2" class="edge">
<title>dir_6171f02b744a82290a33ade69a516b18&#45;&gt;dir_09e761304027c904456130627fd4dcf5</title>
<path fill="none" stroke="black" d="M119.11,-71.7C114.51,-63.64 108.94,-53.89 103.85,-44.98"/>
<polygon fill="black" stroke="black" points="106.77,-43.05 98.77,-36.1 100.7,-46.52 106.77,-43.05"/>
<g id="a_edge2&#45;headlabel"><a xlink:href="dir_000003_000002.html" target="_top" xlink:title="22">
<text text-anchor="middle" x="111.02" y="-42.26" font-family="Helvetica,sans-Serif" font-size="10.00">22</text>
</a>
</g>
</g>
<!-- dir_907281c90289f422c31b0b05ecb3b039 -->
<g id="node3" class="node">
<title>dir_907281c90289f422c31b0b05ecb3b039</title>
<g id="a_node3"><a xlink:href="dir_907281c90289f422c31b0b05ecb3b039.html" target="_top" xlink:title="instructions">
<polygon fill="white" stroke="black" points="83.5,-108 16.5,-108 16.5,-72 83.5,-72 83.5,-108"/>
<text text-anchor="middle" x="50" y="-87.5" font-family="Helvetica,sans-Serif" font-size="10.00">instructions</text>
</a>
</g>
</g>
<!-- dir_907281c90289f422c31b0b05ecb3b039&#45;&gt;dir_09e761304027c904456130627fd4dcf5 -->
<g id="edge1" class="edge">
<title>dir_907281c90289f422c31b0b05ecb3b039&#45;&gt;dir_09e761304027c904456130627fd4dcf5</title>
<path fill="none" stroke="black" d="M59.64,-71.7C64.13,-63.64 69.56,-53.89 74.52,-44.98"/>
<polygon fill="black" stroke="black" points="77.66,-46.54 79.47,-36.1 71.55,-43.14 77.66,-46.54"/>
<g id="a_edge1&#45;headlabel"><a xlink:href="dir_000001_000002.html" target="_top" xlink:title="55">
<text text-anchor="middle" x="78.39" y="-48.57" font-family="Helvetica,sans-Serif" font-size="10.00">55</text>
</a>
</g>
</g>
</g>
</svg>
