<?xml version="1.0" encoding="UTF-8" standalone="no"?>
<!DOCTYPE svg PUBLIC "-//W3C//DTD SVG 1.1//EN"
 "http://www.w3.org/Graphics/SVG/1.1/DTD/svg11.dtd">
<!-- Generated by graphviz version 3.0.0 (20220413.0106)
 -->
<!-- Title: srcs Pages: 1 -->
<svg width="252pt" height="132pt"
 viewBox="0.00 0.00 252.00 132.00" xmlns="http://www.w3.org/2000/svg" xmlns:xlink="http://www.w3.org/1999/xlink">
<g id="graph0" class="graph" transform="scale(1 1) rotate(0) translate(4 128)">
<title>srcs</title>
<polygon fill="white" stroke="transparent" points="-4,4 -4,-128 248,-128 248,4 -4,4"/>
<g id="clust1" class="cluster">
<title>clusterdir_b73b02d482d1c4a3db20c3d9ad52d395</title>
<g id="a_clust1"><a xlink:href="dir_b73b02d482d1c4a3db20c3d9ad52d395.html" target="_top">
<polygon fill="#edf0f7" stroke="#404040" stroke-width="2" points="8,-64 8,-116 236,-116 236,-64 8,-64"/>
</a>
</g>
</g>
<!-- dir_b73b02d482d1c4a3db20c3d9ad52d395 -->
<g id="node1" class="node">
<title>dir_b73b02d482d1c4a3db20c3d9ad52d395</title>
<text text-anchor="middle" x="201" y="-87.5" font-family="Helvetica,sans-Serif" font-size="10.00">srcs</text>
</g>
<!-- dir_09e761304027c904456130627fd4dcf5 -->
<g id="node4" class="node">
<title>dir_09e761304027c904456130627fd4dcf5</title>
<g id="a_node4"><a xlink:href="dir_09e761304027c904456130627fd4dcf5.html" target="_top" xlink:title="includes">
<polygon fill="none" stroke="#404040" points="156,-36 102,-36 102,0 156,0 156,-36"/>
<text text-anchor="middle" x="129" y="-15.5" font-family="Helvetica,sans-Serif" font-size="10.00">includes</text>
</a>
</g>
</g>
<!-- dir_b73b02d482d1c4a3db20c3d9ad52d395&#45;&gt;dir_09e761304027c904456130627fd4dcf5 -->
<g id="edge1" class="edge">
<title>dir_b73b02d482d1c4a3db20c3d9ad52d395&#45;&gt;dir_09e761304027c904456130627fd4dcf5</title>
<path fill="none" stroke="black" d="M183.2,-71.7C174.4,-63.14 163.62,-52.66 154,-43.3"/>
<polygon fill="black" stroke="black" points="156.2,-40.57 146.59,-36.1 151.32,-45.58 156.2,-40.57"/>
<g id="a_edge1&#45;headlabel"><a xlink:href="dir_000005_000002.html" target="_top" xlink:title="144">
<text text-anchor="middle" x="160.76" y="-38.54" font-family="Helvetica,sans-Serif" font-size="10.00">144</text>
</a>
</g>
</g>
<!-- dir_6171f02b744a82290a33ade69a516b18 -->
<g id="node2" class="node">
<title>dir_6171f02b744a82290a33ade69a516b18</title>
<g id="a_node2"><a xlink:href="dir_6171f02b744a82290a33ade69a516b18.html" target="_top" xlink:title="gbclodo">
<polygon fill="#a2b4d6" stroke="#404040" points="156,-108 102,-108 102,-72 156,-72 156,-108"/>
<text text-anchor="middle" x="129" y="-87.5" font-family="Helvetica,sans-Serif" font-size="10.00">gbclodo</text>
</a>
</g>
</g>
<!-- dir_6171f02b744a82290a33ade69a516b18&#45;&gt;dir_09e761304027c904456130627fd4dcf5 -->
<g id="edge2" class="edge">
<title>dir_6171f02b744a82290a33ade69a516b18&#45;&gt;dir_09e761304027c904456130627fd4dcf5</title>
<path fill="none" stroke="black" d="M129,-71.7C129,-63.98 129,-54.71 129,-46.11"/>
<polygon fill="black" stroke="black" points="132.5,-46.1 129,-36.1 125.5,-46.1 132.5,-46.1"/>
<g id="a_edge2&#45;headlabel"><a xlink:href="dir_000000_000002.html" target="_top" xlink:title="21">
<text text-anchor="middle" x="135.34" y="-47.2" font-family="Helvetica,sans-Serif" font-size="10.00">21</text>
</a>
</g>
</g>
<!-- dir_907281c90289f422c31b0b05ecb3b039 -->
<g id="node3" class="node">
<title>dir_907281c90289f422c31b0b05ecb3b039</title>
<g id="a_node3"><a xlink:href="dir_907281c90289f422c31b0b05ecb3b039.html" target="_top" xlink:title="instructions">
<polygon fill="#a2b4d6" stroke="#404040" points="83.5,-108 16.5,-108 16.5,-72 83.5,-72 83.5,-108"/>
<text text-anchor="middle" x="50" y="-87.5" font-family="Helvetica,sans-Serif" font-size="10.00">instructions</text>
</a>
</g>
</g>
<!-- dir_907281c90289f422c31b0b05ecb3b039&#45;&gt;dir_09e761304027c904456130627fd4dcf5 -->
<g id="edge3" class="edge">
<title>dir_907281c90289f422c31b0b05ecb3b039&#45;&gt;dir_09e761304027c904456130627fd4dcf5</title>
<path fill="none" stroke="black" d="M69.53,-71.7C79.38,-62.97 91.49,-52.24 102.2,-42.75"/>
<polygon fill="black" stroke="black" points="104.53,-45.36 109.7,-36.1 99.89,-40.12 104.53,-45.36"/>
<g id="a_edge3&#45;headlabel"><a xlink:href="dir_000003_000002.html" target="_top" xlink:title="55">
<text text-anchor="middle" x="103.73" y="-47.36" font-family="Helvetica,sans-Serif" font-size="10.00">55</text>
</a>
</g>
</g>
</g>
</svg>
