<?xml version="1.0" encoding="UTF-8" standalone="no"?>
<!DOCTYPE svg PUBLIC "-//W3C//DTD SVG 1.1//EN"
 "http://www.w3.org/Graphics/SVG/1.1/DTD/svg11.dtd">
<!-- Generated by graphviz version 3.0.0 (20220413.0242)
 -->
<!-- Title: renderer Pages: 1 -->
<svg width="262pt" height="159pt"
 viewBox="0.00 0.00 262.00 159.00" xmlns="http://www.w3.org/2000/svg" xmlns:xlink="http://www.w3.org/1999/xlink">
<g id="graph0" class="graph" transform="scale(1 1) rotate(0) translate(4 155)">
<title>renderer</title>
<polygon fill="white" stroke="transparent" points="-4,4 -4,-155 258,-155 258,4 -4,4"/>
<g id="clust1" class="cluster">
<title>clusterdir_6171f02b744a82290a33ade69a516b18</title>
<g id="a_clust1"><a xlink:href="dir_6171f02b744a82290a33ade69a516b18.html" target="_top" xlink:title="gbclodo">
<polygon fill="#edf0f7" stroke="#7f7f7f" stroke-dasharray="5,2" points="8,-56 8,-143 246,-143 246,-56 8,-56"/>
<text text-anchor="middle" x="127" y="-131" font-family="Helvetica,sans-Serif" font-size="10.00">gbclodo</text>
</a>
</g>
</g>
<g id="clust2" class="cluster">
<title>clusterdir_67766df24f38df372448945c3cedf046</title>
<g id="a_clust2"><a xlink:href="dir_67766df24f38df372448945c3cedf046.html" target="_top">
<polygon fill="#edf0f7" stroke="#404040" stroke-width="2" points="16,-64 16,-116 238,-116 238,-64 16,-64"/>
</a>
</g>
</g>
<!-- dir_67766df24f38df372448945c3cedf046 -->
<g id="node1" class="node">
<title>dir_67766df24f38df372448945c3cedf046</title>
<text text-anchor="middle" x="203" y="-87.5" font-family="Helvetica,sans-Serif" font-size="10.00">renderer</text>
</g>
<!-- dir_09e761304027c904456130627fd4dcf5 -->
<g id="node4" class="node">
<title>dir_09e761304027c904456130627fd4dcf5</title>
<g id="a_node4"><a xlink:href="dir_09e761304027c904456130627fd4dcf5.html" target="_top" xlink:title="includes">
<polygon fill="none" stroke="#404040" points="230,-36 176,-36 176,0 230,0 230,-36"/>
<text text-anchor="middle" x="203" y="-15.5" font-family="Helvetica,sans-Serif" font-size="10.00">includes</text>
</a>
</g>
</g>
<!-- dir_67766df24f38df372448945c3cedf046&#45;&gt;dir_09e761304027c904456130627fd4dcf5 -->
<g id="edge1" class="edge">
<title>dir_67766df24f38df372448945c3cedf046&#45;&gt;dir_09e761304027c904456130627fd4dcf5</title>
<path fill="none" stroke="black" d="M203,-71.7C203,-63.98 203,-54.71 203,-46.11"/>
<polygon fill="black" stroke="black" points="206.5,-46.1 203,-36.1 199.5,-46.1 206.5,-46.1"/>
<g id="a_edge1&#45;headlabel"><a xlink:href="dir_000004_000002.html" target="_top" xlink:title="1">
<text text-anchor="middle" x="209.34" y="-47.2" font-family="Helvetica,sans-Serif" font-size="10.00">1</text>
</a>
</g>
</g>
<!-- dir_616647c127be7a8ccf80c47c0b9548bb -->
<g id="node2" class="node">
<title>dir_616647c127be7a8ccf80c47c0b9548bb</title>
<g id="a_node2"><a xlink:href="dir_616647c127be7a8ccf80c47c0b9548bb.html" target="_top" xlink:title="gl_utils">
<polygon fill="#a2b4d6" stroke="#404040" points="158,-108 104,-108 104,-72 158,-72 158,-108"/>
<text text-anchor="middle" x="131" y="-87.5" font-family="Helvetica,sans-Serif" font-size="10.00">gl_utils</text>
</a>
</g>
</g>
<!-- dir_f4e9c4cb1f097dc249e2c17429949c8d -->
<g id="node3" class="node">
<title>dir_f4e9c4cb1f097dc249e2c17429949c8d</title>
<g id="a_node3"><a xlink:href="dir_f4e9c4cb1f097dc249e2c17429949c8d.html" target="_top" xlink:title="wrapper_c">
<polygon fill="#a2b4d6" stroke="#404040" points="86,-108 24,-108 24,-72 86,-72 86,-108"/>
<text text-anchor="middle" x="55" y="-87.5" font-family="Helvetica,sans-Serif" font-size="10.00">wrapper_c</text>
</a>
</g>
</g>
</g>
</svg>
