<?xml version="1.0" encoding="UTF-8" standalone="no"?>
<!DOCTYPE svg PUBLIC "-//W3C//DTD SVG 1.1//EN"
 "http://www.w3.org/Graphics/SVG/1.1/DTD/svg11.dtd">
<!-- Generated by graphviz version 2.50.0 (20220203.2022)
 -->
<!-- Title: write_8 Pages: 1 -->
<svg width="181pt" height="104pt"
 viewBox="0.00 0.00 181.00 104.00" xmlns="http://www.w3.org/2000/svg" xmlns:xlink="http://www.w3.org/1999/xlink">
<g id="graph0" class="graph" transform="scale(1 1) rotate(0) translate(4 100)">
<title>write_8</title>
<polygon fill="white" stroke="transparent" points="-4,4 -4,-100 177,-100 177,4 -4,4"/>
<!-- Node1 -->
<g id="node1" class="node">
<title>Node1</title>
<g id="a_node1"><a xlink:title="Write an 8&#45;bit word to the appropriate memory location. This is the safe way to access the gameboy me...">
<polygon fill="#bfbfbf" stroke="black" points="125,-38.5 125,-57.5 173,-57.5 173,-38.5 125,-38.5"/>
<text text-anchor="middle" x="149" y="-45.5" font-family="Helvetica,sans-Serif" font-size="10.00">write_8</text>
</a>
</g>
</g>
<!-- Node2 -->
<g id="node2" class="node">
<title>Node2</title>
<g id="a_node2"><a xlink:href="gpu_8c.html#aa5bc80392e446c4a40198e337f59ba90" target="_top" xlink:title="Executes one gpu tick. This should be called every step.">
<polygon fill="white" stroke="black" points="18,-76.5 18,-95.5 71,-95.5 71,-76.5 18,-76.5"/>
<text text-anchor="middle" x="44.5" y="-83.5" font-family="Helvetica,sans-Serif" font-size="10.00">gpu_tick</text>
</a>
</g>
</g>
<!-- Node1&#45;&gt;Node2 -->
<g id="edge1" class="edge">
<title>Node1&#45;&gt;Node2</title>
<path fill="none" stroke="midnightblue" d="M115.54,-60.03C101.26,-65.33 84.73,-71.46 71.31,-76.43"/>
<polygon fill="midnightblue" stroke="midnightblue" points="116.84,-63.29 125,-56.53 114.4,-56.72 116.84,-63.29"/>
</g>
<!-- Node3 -->
<g id="node3" class="node">
<title>Node3</title>
<g id="a_node3"><a xlink:href="execute_8c.html#a5cb8f3247967b362794183007d8941e0" target="_top" xlink:title="Requests an interrupt by writing the corresponding value to the IF register.">
<polygon fill="white" stroke="black" points="0,-38.5 0,-57.5 89,-57.5 89,-38.5 0,-38.5"/>
<text text-anchor="middle" x="44.5" y="-45.5" font-family="Helvetica,sans-Serif" font-size="10.00">request_interrupt</text>
</a>
</g>
</g>
<!-- Node1&#45;&gt;Node3 -->
<g id="edge2" class="edge">
<title>Node1&#45;&gt;Node3</title>
<path fill="none" stroke="midnightblue" d="M114.99,-48C106.72,-48 97.72,-48 89.03,-48"/>
<polygon fill="midnightblue" stroke="midnightblue" points="115,-51.5 125,-48 115,-44.5 115,-51.5"/>
</g>
<!-- Node4 -->
<g id="node4" class="node">
<title>Node4</title>
<g id="a_node4"><a xlink:href="write_8c.html#a739233ba346fceb805b02e8fe19b6067" target="_top" xlink:title="Write a 16&#45;bit word to the appropriate memory location. This is the safe way to access the gameboy me...">
<polygon fill="white" stroke="black" points="18,-0.5 18,-19.5 71,-19.5 71,-0.5 18,-0.5"/>
<text text-anchor="middle" x="44.5" y="-7.5" font-family="Helvetica,sans-Serif" font-size="10.00">write_16</text>
</a>
</g>
</g>
<!-- Node1&#45;&gt;Node4 -->
<g id="edge3" class="edge">
<title>Node1&#45;&gt;Node4</title>
<path fill="none" stroke="midnightblue" d="M115.54,-35.97C101.26,-30.67 84.73,-24.54 71.31,-19.57"/>
<polygon fill="midnightblue" stroke="midnightblue" points="114.4,-39.28 125,-39.47 116.84,-32.71 114.4,-39.28"/>
</g>
</g>
</svg>
