<?xml version="1.0" encoding="UTF-8" standalone="no"?>
<!DOCTYPE svg PUBLIC "-//W3C//DTD SVG 1.1//EN"
 "http://www.w3.org/Graphics/SVG/1.1/DTD/svg11.dtd">
<!-- Generated by graphviz version 2.50.0 (20220203.2022)
 -->
<!-- Title: write_8_force Pages: 1 -->
<svg width="235pt" height="104pt"
 viewBox="0.00 0.00 235.00 104.00" xmlns="http://www.w3.org/2000/svg" xmlns:xlink="http://www.w3.org/1999/xlink">
<g id="graph0" class="graph" transform="scale(1 1) rotate(0) translate(4 100)">
<title>write_8_force</title>
<polygon fill="white" stroke="transparent" points="-4,4 -4,-100 231,-100 231,4 -4,4"/>
<!-- Node1 -->
<g id="node1" class="node">
<title>Node1</title>
<g id="a_node1"><a xlink:title=" ">
<polygon fill="#bfbfbf" stroke="black" points="152,-38.5 152,-57.5 227,-57.5 227,-38.5 152,-38.5"/>
<text text-anchor="middle" x="189.5" y="-45.5" font-family="Helvetica,sans-Serif" font-size="10.00">write_8_force</text>
</a>
</g>
</g>
<!-- Node2 -->
<g id="node2" class="node">
<title>Node2</title>
<g id="a_node2"><a xlink:href="write_8c.html#ae1a3aa8db6bfe1d4283907804b20bc6a" target="_top" xlink:title="Transfer data from memory to VRAM with an arbitrary length. This function is only available on CGB.">
<polygon fill="white" stroke="black" points="1.5,-76.5 1.5,-95.5 114.5,-95.5 114.5,-76.5 1.5,-76.5"/>
<text text-anchor="middle" x="58" y="-83.5" font-family="Helvetica,sans-Serif" font-size="10.00">initiate_hdma_transfer</text>
</a>
</g>
</g>
<!-- Node1&#45;&gt;Node2 -->
<g id="edge1" class="edge">
<title>Node1&#45;&gt;Node2</title>
<path fill="none" stroke="midnightblue" d="M145.78,-60.54C128.16,-65.7 108.08,-71.6 91.67,-76.41"/>
<polygon fill="midnightblue" stroke="midnightblue" points="147.21,-63.76 155.82,-57.59 145.24,-57.05 147.21,-63.76"/>
</g>
<!-- Node3 -->
<g id="node3" class="node">
<title>Node3</title>
<g id="a_node3"><a xlink:href="write_8c.html#a7c05ab846328c2543fcee3bbdf7b9334" target="_top" xlink:title="Process the next 0x10 bytes of the ongoing HDMA transfer. This function should be called on HBLANK on...">
<polygon fill="white" stroke="black" points="0,-38.5 0,-57.5 116,-57.5 116,-38.5 0,-38.5"/>
<text text-anchor="middle" x="58" y="-45.5" font-family="Helvetica,sans-Serif" font-size="10.00">resume_hdma_transfer</text>
</a>
</g>
</g>
<!-- Node1&#45;&gt;Node3 -->
<g id="edge2" class="edge">
<title>Node1&#45;&gt;Node3</title>
<path fill="none" stroke="midnightblue" d="M141.57,-48C133.33,-48 124.67,-48 116.19,-48"/>
<polygon fill="midnightblue" stroke="midnightblue" points="141.74,-51.5 151.74,-48 141.74,-44.5 141.74,-51.5"/>
</g>
<!-- Node4 -->
<g id="node4" class="node">
<title>Node4</title>
<g id="a_node4"><a xlink:href="write_8c.html#a5030392e1e47de325480e1d2d2efaf74" target="_top" xlink:title=" ">
<polygon fill="white" stroke="black" points="18,-0.5 18,-19.5 98,-19.5 98,-0.5 18,-0.5"/>
<text text-anchor="middle" x="58" y="-7.5" font-family="Helvetica,sans-Serif" font-size="10.00">write_16_force</text>
</a>
</g>
</g>
<!-- Node1&#45;&gt;Node4 -->
<g id="edge3" class="edge">
<title>Node1&#45;&gt;Node4</title>
<path fill="none" stroke="midnightblue" d="M145.78,-35.46C128.16,-30.3 108.08,-24.4 91.67,-19.59"/>
<polygon fill="midnightblue" stroke="midnightblue" points="145.24,-38.95 155.82,-38.41 147.21,-32.24 145.24,-38.95"/>
</g>
</g>
</svg>
