<?xml version="1.0" encoding="UTF-8" standalone="no"?>
<!DOCTYPE svg PUBLIC "-//W3C//DTD SVG 1.1//EN"
 "http://www.w3.org/Graphics/SVG/1.1/DTD/svg11.dtd">
<!-- Generated by graphviz version 3.0.0 (20220413.0106)
 -->
<!-- Title: load_game Pages: 1 -->
<svg width="214pt" height="66pt"
 viewBox="0.00 0.00 214.00 66.00" xmlns="http://www.w3.org/2000/svg" xmlns:xlink="http://www.w3.org/1999/xlink">
<g id="graph0" class="graph" transform="scale(1 1) rotate(0) translate(4 62)">
<title>load_game</title>
<polygon fill="white" stroke="transparent" points="-4,4 -4,-62 210,-62 210,4 -4,4"/>
<!-- Node1 -->
<g id="node1" class="node">
<title>Node1</title>
<g id="a_node1"><a xlink:title="This function attempts to load the following save file: &quot;./saves/&lt;name&gt;.sav&quot; where &lt;name&gt; is the name...">
<polygon fill="#bfbfbf" stroke="black" points="0,-19.5 0,-38.5 64,-38.5 64,-19.5 0,-19.5"/>
<text text-anchor="middle" x="32" y="-26.5" font-family="Helvetica,sans-Serif" font-size="10.00">load_game</text>
</a>
</g>
</g>
<!-- Node2 -->
<g id="node2" class="node">
<title>Node2</title>
<g id="a_node2"><a xlink:href="tools_8c.html#abfd7d543ab09de28ac13f7e1960d971b" target="_top" xlink:title="Get the user data directory. On Windows, this equals to C:\Users\&lt;username&gt;\AppDataload_gameBmu....">
<polygon fill="white" stroke="black" points="106,-38.5 106,-57.5 200,-57.5 200,-38.5 106,-38.5"/>
<text text-anchor="middle" x="153" y="-45.5" font-family="Helvetica,sans-Serif" font-size="10.00">get_user_data_dir</text>
</a>
</g>
</g>
<!-- Node1&#45;&gt;Node2 -->
<g id="edge1" class="edge">
<title>Node1&#45;&gt;Node2</title>
<path fill="none" stroke="midnightblue" d="M64.27,-33.99C73.97,-35.54 84.97,-37.3 95.83,-39.03"/>
<polygon fill="midnightblue" stroke="midnightblue" points="95.29,-42.49 105.71,-40.61 96.39,-35.58 95.29,-42.49"/>
</g>
<!-- Node3 -->
<g id="node3" class="node">
<title>Node3</title>
<g id="a_node3"><a xlink:href="save__game_8c.html#a0c72cd251f8722eafabef9abeea64431" target="_top" xlink:title="Attempts to load a save file for the current game. In case the file is found but the content is not w...">
<polygon fill="white" stroke="black" points="100,-0.5 100,-19.5 206,-19.5 206,-0.5 100,-0.5"/>
<text text-anchor="middle" x="153" y="-7.5" font-family="Helvetica,sans-Serif" font-size="10.00">load_game_from_file</text>
</a>
</g>
</g>
<!-- Node1&#45;&gt;Node3 -->
<g id="edge2" class="edge">
<title>Node1&#45;&gt;Node3</title>
<path fill="none" stroke="midnightblue" d="M64.27,-24.01C72.17,-22.75 80.94,-21.35 89.79,-19.93"/>
<polygon fill="midnightblue" stroke="midnightblue" points="90.45,-23.37 99.78,-18.34 89.35,-16.46 90.45,-23.37"/>
</g>
</g>
</svg>
