<?xml version="1.0" encoding="UTF-8" standalone="no"?>
<!DOCTYPE svg PUBLIC "-//W3C//DTD SVG 1.1//EN"
 "http://www.w3.org/Graphics/SVG/1.1/DTD/svg11.dtd">
<!-- Generated by graphviz version 2.44.0 ()
 -->
<!-- Title: gpu_tick Pages: 1 -->
<svg width="145pt" height="66pt"
 viewBox="0.00 0.00 145.00 66.00" xmlns="http://www.w3.org/2000/svg" xmlns:xlink="http://www.w3.org/1999/xlink">
<g id="graph0" class="graph" transform="scale(1 1) rotate(0) translate(4 62)">
<title>gpu_tick</title>
<polygon fill="white" stroke="transparent" points="-4,4 -4,-62 141,-62 141,4 -4,4"/>
<!-- Node1 -->
<g id="node1" class="node">
<title>Node1</title>
<g id="a_node1"><a xlink:title="Executes one gpu tick. This should be called every step.">
<polygon fill="#bfbfbf" stroke="black" points="0,-19.5 0,-38.5 53,-38.5 53,-19.5 0,-19.5"/>
<text text-anchor="middle" x="26.5" y="-26.5" font-family="Helvetica,sans-Serif" font-size="10.00">gpu_tick</text>
</a>
</g>
</g>
<!-- Node2 -->
<g id="node2" class="node">
<title>Node2</title>
<g id="a_node2"><a xlink:href="gb_8h.html#a9ff752910cf109fcfec61e099d2fccbc" target="_top" xlink:title="Read an 8&#45;bit word from the appropriate memory location. This is the safe way to access the gameboy m...">
<polygon fill="white" stroke="black" points="90,-38.5 90,-57.5 136,-57.5 136,-38.5 90,-38.5"/>
<text text-anchor="middle" x="113" y="-45.5" font-family="Helvetica,sans-Serif" font-size="10.00">read_8</text>
</a>
</g>
</g>
<!-- Node1&#45;&gt;Node2 -->
<g id="edge1" class="edge">
<title>Node1&#45;&gt;Node2</title>
<path fill="none" stroke="midnightblue" d="M53.31,-34.8C61.68,-36.69 71.08,-38.8 79.85,-40.77"/>
<polygon fill="midnightblue" stroke="midnightblue" points="79.25,-44.22 89.77,-43 80.78,-37.39 79.25,-44.22"/>
</g>
<!-- Node3 -->
<g id="node3" class="node">
<title>Node3</title>
<g id="a_node3"><a xlink:href="gb_8h.html#addd27cb5c39083f9f25aec2de4759ddc" target="_top" xlink:title="Write an 8&#45;bit word to the appropriate memory location. This is the safe way to access the gameboy me...">
<polygon fill="white" stroke="black" points="89,-0.5 89,-19.5 137,-19.5 137,-0.5 89,-0.5"/>
<text text-anchor="middle" x="113" y="-7.5" font-family="Helvetica,sans-Serif" font-size="10.00">write_8</text>
</a>
</g>
</g>
<!-- Node1&#45;&gt;Node3 -->
<g id="edge2" class="edge">
<title>Node1&#45;&gt;Node3</title>
<path fill="none" stroke="midnightblue" d="M53.31,-23.2C61.39,-21.38 70.41,-19.35 78.91,-17.44"/>
<polygon fill="midnightblue" stroke="midnightblue" points="79.94,-20.8 88.93,-15.19 78.4,-13.97 79.94,-20.8"/>
</g>
</g>
</svg>
