<?xml version="1.0" encoding="UTF-8" standalone="no"?>
<!DOCTYPE svg PUBLIC "-//W3C//DTD SVG 1.1//EN"
 "http://www.w3.org/Graphics/SVG/1.1/DTD/svg11.dtd">
<!-- Generated by graphviz version 2.44.0 ()
 -->
<!-- Title: read_8 Pages: 1 -->
<svg width="498pt" height="142pt"
 viewBox="0.00 0.00 498.00 142.00" xmlns="http://www.w3.org/2000/svg" xmlns:xlink="http://www.w3.org/1999/xlink">
<g id="graph0" class="graph" transform="scale(1 1) rotate(0) translate(4 138)">
<title>read_8</title>
<polygon fill="white" stroke="transparent" points="-4,4 -4,-138 494,-138 494,4 -4,4"/>
<!-- Node1 -->
<g id="node1" class="node">
<title>Node1</title>
<g id="a_node1"><a xlink:title="Read an 8&#45;bit word from the appropriate memory location. This is the safe way to access the gameboy m...">
<polygon fill="#bfbfbf" stroke="black" points="444,-57.5 444,-76.5 490,-76.5 490,-57.5 444,-57.5"/>
<text text-anchor="middle" x="467" y="-64.5" font-family="Helvetica,sans-Serif" font-size="10.00">read_8</text>
</a>
</g>
</g>
<!-- Node2 -->
<g id="node2" class="node">
<title>Node2</title>
<g id="a_node2"><a xlink:href="gb_8h.html#aa5bc80392e446c4a40198e337f59ba90" target="_top" xlink:title="Executes one gpu tick. This should be called every step.">
<polygon fill="white" stroke="black" points="326.5,-114.5 326.5,-133.5 379.5,-133.5 379.5,-114.5 326.5,-114.5"/>
<text text-anchor="middle" x="353" y="-121.5" font-family="Helvetica,sans-Serif" font-size="10.00">gpu_tick</text>
</a>
</g>
</g>
<!-- Node1&#45;&gt;Node2 -->
<g id="edge1" class="edge">
<title>Node1&#45;&gt;Node2</title>
<path fill="none" stroke="midnightblue" d="M444.91,-82.59C434.22,-90.03 420.81,-98.66 408,-105 399,-109.45 388.7,-113.34 379.52,-116.43"/>
<polygon fill="midnightblue" stroke="midnightblue" points="447.07,-85.36 453.18,-76.7 443.01,-79.65 447.07,-85.36"/>
</g>
<!-- Node3 -->
<g id="node3" class="node">
<title>Node3</title>
<g id="a_node3"><a xlink:href="gb_8h.html#ae9412814e44fdf1354e4471b16914b45" target="_top" xlink:title="Read a 16&#45;bit word from the appropriate memory location. This is the safe way to access the gameboy m...">
<polygon fill="white" stroke="black" points="327.5,-76.5 327.5,-95.5 378.5,-95.5 378.5,-76.5 327.5,-76.5"/>
<text text-anchor="middle" x="353" y="-83.5" font-family="Helvetica,sans-Serif" font-size="10.00">read_16</text>
</a>
</g>
</g>
<!-- Node1&#45;&gt;Node3 -->
<g id="edge2" class="edge">
<title>Node1&#45;&gt;Node3</title>
<path fill="none" stroke="midnightblue" d="M433.57,-72.5C416.12,-75.46 394.93,-79.06 378.81,-81.79"/>
<polygon fill="midnightblue" stroke="midnightblue" points="434.6,-75.88 443.87,-70.75 433.43,-68.98 434.6,-75.88"/>
</g>
<!-- Node4 -->
<g id="node4" class="node">
<title>Node4</title>
<g id="a_node4"><a xlink:href="gb_8h.html#a5a919d32342038b24d05d91dd31550f2" target="_top" xlink:title="Updates the gb struct. This should be called after each instruction. This sets the gb&#45;&gt;current_instru...">
<polygon fill="white" stroke="black" points="131,-57.5 131,-76.5 262,-76.5 262,-57.5 131,-57.5"/>
<text text-anchor="middle" x="196.5" y="-64.5" font-family="Helvetica,sans-Serif" font-size="10.00">update_current_instruction</text>
</a>
</g>
</g>
<!-- Node1&#45;&gt;Node4 -->
<g id="edge5" class="edge">
<title>Node1&#45;&gt;Node4</title>
<path fill="none" stroke="midnightblue" d="M433.56,-67C391.27,-67 316.36,-67 262.24,-67"/>
<polygon fill="midnightblue" stroke="midnightblue" points="433.57,-70.5 443.57,-67 433.57,-63.5 433.57,-70.5"/>
</g>
<!-- Node6 -->
<g id="node6" class="node">
<title>Node6</title>
<g id="a_node6"><a xlink:href="gb_8h.html#a856acdaf9de870349a8f50eb2fb89d9d" target="_top" xlink:title="Updates the timer (TIMA_OFFSET) and requests an interrupt if needed.">
<polygon fill="white" stroke="black" points="298,-0.5 298,-19.5 408,-19.5 408,-0.5 298,-0.5"/>
<text text-anchor="middle" x="353" y="-7.5" font-family="Helvetica,sans-Serif" font-size="10.00">update_timer_register</text>
</a>
</g>
</g>
<!-- Node1&#45;&gt;Node6 -->
<g id="edge6" class="edge">
<title>Node1&#45;&gt;Node6</title>
<path fill="none" stroke="midnightblue" d="M441.23,-52.19C431.05,-46.29 419.08,-39.6 408,-34 397.93,-28.91 386.54,-23.77 376.83,-19.55"/>
<polygon fill="midnightblue" stroke="midnightblue" points="439.59,-55.28 449.98,-57.32 443.12,-49.24 439.59,-55.28"/>
</g>
<!-- Node3&#45;&gt;Node4 -->
<g id="edge3" class="edge">
<title>Node3&#45;&gt;Node4</title>
<path fill="none" stroke="midnightblue" d="M317.09,-81.71C300.88,-79.71 281.06,-77.28 262.26,-74.96"/>
<polygon fill="midnightblue" stroke="midnightblue" points="316.82,-85.2 327.18,-82.95 317.68,-78.25 316.82,-85.2"/>
</g>
<!-- Node5 -->
<g id="node5" class="node">
<title>Node5</title>
<g id="a_node5"><a xlink:href="gb_8h.html#a62664ca8db705f6c53010a831980587c" target="_top" xlink:title="Executes the next instruction currently pointed by the PC register.">
<polygon fill="white" stroke="black" points="0,-57.5 0,-76.5 95,-76.5 95,-57.5 0,-57.5"/>
<text text-anchor="middle" x="47.5" y="-64.5" font-family="Helvetica,sans-Serif" font-size="10.00">handle_instruction</text>
</a>
</g>
</g>
<!-- Node4&#45;&gt;Node5 -->
<g id="edge4" class="edge">
<title>Node4&#45;&gt;Node5</title>
<path fill="none" stroke="midnightblue" d="M120.56,-67C111.99,-67 103.46,-67 95.41,-67"/>
<polygon fill="midnightblue" stroke="midnightblue" points="120.6,-70.5 130.6,-67 120.6,-63.5 120.6,-70.5"/>
</g>
</g>
</svg>
