<?xml version="1.0" encoding="UTF-8" standalone="no"?>
<!DOCTYPE svg PUBLIC "-//W3C//DTD SVG 1.1//EN"
 "http://www.w3.org/Graphics/SVG/1.1/DTD/svg11.dtd">
<!-- Generated by graphviz version 3.0.0 (20220413.0242)
 -->
<!-- Title: request_interrupt Pages: 1 -->
<svg width="206pt" height="66pt"
 viewBox="0.00 0.00 206.00 66.00" xmlns="http://www.w3.org/2000/svg" xmlns:xlink="http://www.w3.org/1999/xlink">
<g id="graph0" class="graph" transform="scale(1 1) rotate(0) translate(4 62)">
<title>request_interrupt</title>
<polygon fill="white" stroke="transparent" points="-4,4 -4,-62 202,-62 202,4 -4,4"/>
<!-- Node1 -->
<g id="node1" class="node">
<title>Node1</title>
<g id="a_node1"><a xlink:title="Requests an interrupt by writing the corresponding value to the IF register.">
<polygon fill="#bfbfbf" stroke="black" points="0,-19.5 0,-38.5 89,-38.5 89,-19.5 0,-19.5"/>
<text text-anchor="middle" x="44.5" y="-26.5" font-family="Helvetica,sans-Serif" font-size="10.00">request_interrupt</text>
</a>
</g>
</g>
<!-- Node2 -->
<g id="node2" class="node">
<title>Node2</title>
<g id="a_node2"><a xlink:href="read_8c.html#afa5c8e853cfac77001f009a81f3403be" target="_top" xlink:title=" ">
<polygon fill="white" stroke="black" points="125,-38.5 125,-57.5 198,-57.5 198,-38.5 125,-38.5"/>
<text text-anchor="middle" x="161.5" y="-45.5" font-family="Helvetica,sans-Serif" font-size="10.00">read_8_force</text>
</a>
</g>
</g>
<!-- Node1&#45;&gt;Node2 -->
<g id="edge1" class="edge">
<title>Node1&#45;&gt;Node2</title>
<path fill="none" stroke="midnightblue" d="M89.3,-36.24C97.61,-37.61 106.32,-39.05 114.68,-40.43"/>
<polygon fill="midnightblue" stroke="midnightblue" points="114.22,-43.9 124.66,-42.08 115.36,-37 114.22,-43.9"/>
</g>
<!-- Node3 -->
<g id="node3" class="node">
<title>Node3</title>
<g id="a_node3"><a xlink:href="write_8c.html#addd27cb5c39083f9f25aec2de4759ddc" target="_top" xlink:title="Write an 8&#45;bit word to the appropriate memory location. This is the safe way to access the gameboy me...">
<polygon fill="white" stroke="black" points="137.5,-0.5 137.5,-19.5 185.5,-19.5 185.5,-0.5 137.5,-0.5"/>
<text text-anchor="middle" x="161.5" y="-7.5" font-family="Helvetica,sans-Serif" font-size="10.00">write_8</text>
</a>
</g>
</g>
<!-- Node1&#45;&gt;Node3 -->
<g id="edge2" class="edge">
<title>Node1&#45;&gt;Node3</title>
<path fill="none" stroke="midnightblue" d="M89.3,-21.76C101.97,-19.67 115.58,-17.42 127.47,-15.46"/>
<polygon fill="midnightblue" stroke="midnightblue" points="128.11,-18.9 137.41,-13.81 126.97,-11.99 128.11,-18.9"/>
</g>
</g>
</svg>
