<?xml version="1.0" encoding="UTF-8" standalone="no"?>
<!DOCTYPE svg PUBLIC "-//W3C//DTD SVG 1.1//EN"
 "http://www.w3.org/Graphics/SVG/1.1/DTD/svg11.dtd">
<!-- Generated by graphviz version 2.44.0 ()
 -->
<!-- Title: read_16_force Pages: 1 -->
<svg width="384pt" height="28pt"
 viewBox="0.00 0.00 384.00 28.00" xmlns="http://www.w3.org/2000/svg" xmlns:xlink="http://www.w3.org/1999/xlink">
<g id="graph0" class="graph" transform="scale(1 1) rotate(0) translate(4 24)">
<title>read_16_force</title>
<polygon fill="white" stroke="transparent" points="-4,4 -4,-24 380,-24 380,4 -4,4"/>
<!-- Node1 -->
<g id="node1" class="node">
<title>Node1</title>
<g id="a_node1"><a xlink:title=" ">
<polygon fill="#bfbfbf" stroke="black" points="298,-0.5 298,-19.5 376,-19.5 376,-0.5 298,-0.5"/>
<text text-anchor="middle" x="337" y="-7.5" font-family="Helvetica,sans-Serif" font-size="10.00">read_16_force</text>
</a>
</g>
</g>
<!-- Node2 -->
<g id="node2" class="node">
<title>Node2</title>
<g id="a_node2"><a xlink:href="gb_8h.html#a5a919d32342038b24d05d91dd31550f2" target="_top" xlink:title="Updates the gb struct. This should be called after each instruction. This sets the gb&#45;&gt;current_instru...">
<polygon fill="white" stroke="black" points="131,-0.5 131,-19.5 262,-19.5 262,-0.5 131,-0.5"/>
<text text-anchor="middle" x="196.5" y="-7.5" font-family="Helvetica,sans-Serif" font-size="10.00">update_current_instruction</text>
</a>
</g>
</g>
<!-- Node1&#45;&gt;Node2 -->
<g id="edge1" class="edge">
<title>Node1&#45;&gt;Node2</title>
<path fill="none" stroke="midnightblue" d="M287.63,-10C279.41,-10 270.74,-10 262.17,-10"/>
<polygon fill="midnightblue" stroke="midnightblue" points="287.79,-13.5 297.79,-10 287.79,-6.5 287.79,-13.5"/>
</g>
<!-- Node3 -->
<g id="node3" class="node">
<title>Node3</title>
<g id="a_node3"><a xlink:href="gb_8h.html#a62664ca8db705f6c53010a831980587c" target="_top" xlink:title="Executes the next instruction currently pointed by the PC register.">
<polygon fill="white" stroke="black" points="0,-0.5 0,-19.5 95,-19.5 95,-0.5 0,-0.5"/>
<text text-anchor="middle" x="47.5" y="-7.5" font-family="Helvetica,sans-Serif" font-size="10.00">handle_instruction</text>
</a>
</g>
</g>
<!-- Node2&#45;&gt;Node3 -->
<g id="edge2" class="edge">
<title>Node2&#45;&gt;Node3</title>
<path fill="none" stroke="midnightblue" d="M120.56,-10C111.99,-10 103.46,-10 95.41,-10"/>
<polygon fill="midnightblue" stroke="midnightblue" points="120.6,-13.5 130.6,-10 120.6,-6.5 120.6,-13.5"/>
</g>
</g>
</svg>
