<?xml version="1.0" encoding="UTF-8" standalone="no"?>
<!DOCTYPE svg PUBLIC "-//W3C//DTD SVG 1.1//EN"
 "http://www.w3.org/Graphics/SVG/1.1/DTD/svg11.dtd">
<!-- Generated by graphviz version 3.0.0 (20220413.0106)
 -->
<!-- Title: read_8_force Pages: 1 -->
<svg width="531pt" height="218pt"
 viewBox="0.00 0.00 531.00 218.00" xmlns="http://www.w3.org/2000/svg" xmlns:xlink="http://www.w3.org/1999/xlink">
<g id="graph0" class="graph" transform="scale(1 1) rotate(0) translate(4 214)">
<title>read_8_force</title>
<polygon fill="white" stroke="transparent" points="-4,4 -4,-214 527,-214 527,4 -4,4"/>
<!-- Node1 -->
<g id="node1" class="node">
<title>Node1</title>
<g id="a_node1"><a xlink:title=" ">
<polygon fill="#bfbfbf" stroke="black" points="450,-95.5 450,-114.5 523,-114.5 523,-95.5 450,-95.5"/>
<text text-anchor="middle" x="486.5" y="-102.5" font-family="Helvetica,sans-Serif" font-size="10.00">read_8_force</text>
</a>
</g>
</g>
<!-- Node2 -->
<g id="node2" class="node">
<title>Node2</title>
<g id="a_node2"><a xlink:href="write_8c.html#ae1a3aa8db6bfe1d4283907804b20bc6a" target="_top" xlink:title="Transfer data from memory to VRAM with an arbitrary length. This function is only available on CGB.">
<polygon fill="white" stroke="black" points="299.5,-190.5 299.5,-209.5 412.5,-209.5 412.5,-190.5 299.5,-190.5"/>
<text text-anchor="middle" x="356" y="-197.5" font-family="Helvetica,sans-Serif" font-size="10.00">initiate_hdma_transfer</text>
</a>
</g>
</g>
<!-- Node1&#45;&gt;Node2 -->
<g id="edge1" class="edge">
<title>Node1&#45;&gt;Node2</title>
<path fill="none" stroke="midnightblue" d="M473,-122.7C460.04,-139.85 438.31,-165.46 414,-181 408.02,-184.82 401.2,-187.95 394.4,-190.49"/>
<polygon fill="midnightblue" stroke="midnightblue" points="475.84,-124.74 478.94,-114.61 470.2,-120.6 475.84,-124.74"/>
</g>
<!-- Node3 -->
<g id="node3" class="node">
<title>Node3</title>
<g id="a_node3"><a xlink:href="write_8c.html#a2939f2f449cb6ca30d69285b28797fff" target="_top" xlink:title="Transfer data from memory to OAM with a fixed length. This function is available on both CGB and DMG.">
<polygon fill="white" stroke="black" points="299.5,-152.5 299.5,-171.5 412.5,-171.5 412.5,-152.5 299.5,-152.5"/>
<text text-anchor="middle" x="356" y="-159.5" font-family="Helvetica,sans-Serif" font-size="10.00">process_dma_transfer</text>
</a>
</g>
</g>
<!-- Node1&#45;&gt;Node3 -->
<g id="edge2" class="edge">
<title>Node1&#45;&gt;Node3</title>
<path fill="none" stroke="midnightblue" d="M460.69,-119.5C447.16,-127.07 429.96,-136.16 414,-143 405.95,-146.45 397.04,-149.69 388.71,-152.47"/>
<polygon fill="midnightblue" stroke="midnightblue" points="462.44,-122.53 469.41,-114.55 458.99,-116.44 462.44,-122.53"/>
</g>
<!-- Node4 -->
<g id="node4" class="node">
<title>Node4</title>
<g id="a_node4"><a xlink:href="read_8c.html#ad96445dec9bad864028e5254ab293f51" target="_top" xlink:title=" ">
<polygon fill="white" stroke="black" points="317,-114.5 317,-133.5 395,-133.5 395,-114.5 317,-114.5"/>
<text text-anchor="middle" x="356" y="-121.5" font-family="Helvetica,sans-Serif" font-size="10.00">read_16_force</text>
</a>
</g>
</g>
<!-- Node1&#45;&gt;Node4 -->
<g id="edge3" class="edge">
<title>Node1&#45;&gt;Node4</title>
<path fill="none" stroke="midnightblue" d="M439.45,-111.81C424.98,-113.95 409.17,-116.29 395.3,-118.34"/>
<polygon fill="midnightblue" stroke="midnightblue" points="440.33,-115.22 449.71,-110.29 439.3,-108.29 440.33,-115.22"/>
</g>
<!-- Node5 -->
<g id="node5" class="node">
<title>Node5</title>
<g id="a_node5"><a xlink:href="execute_8c.html#a5a919d32342038b24d05d91dd31550f2" target="_top" xlink:title="Updates the gb struct. This should be called after each instruction. This sets the gb&#45;&gt;current_instru...">
<polygon fill="white" stroke="black" points="131,-95.5 131,-114.5 262,-114.5 262,-95.5 131,-95.5"/>
<text text-anchor="middle" x="196.5" y="-102.5" font-family="Helvetica,sans-Serif" font-size="10.00">update_current_instruction</text>
</a>
</g>
</g>
<!-- Node1&#45;&gt;Node5 -->
<g id="edge8" class="edge">
<title>Node1&#45;&gt;Node5</title>
<path fill="none" stroke="midnightblue" d="M439.81,-105C391.85,-105 316.06,-105 262.01,-105"/>
<polygon fill="midnightblue" stroke="midnightblue" points="439.9,-108.5 449.9,-105 439.9,-101.5 439.9,-108.5"/>
</g>
<!-- Node7 -->
<g id="node7" class="node">
<title>Node7</title>
<g id="a_node7"><a xlink:href="execute_8c.html#a5cb8f3247967b362794183007d8941e0" target="_top" xlink:title="Requests an interrupt by writing the corresponding value to the IF register.">
<polygon fill="white" stroke="black" points="311.5,-38.5 311.5,-57.5 400.5,-57.5 400.5,-38.5 311.5,-38.5"/>
<text text-anchor="middle" x="356" y="-45.5" font-family="Helvetica,sans-Serif" font-size="10.00">request_interrupt</text>
</a>
</g>
</g>
<!-- Node1&#45;&gt;Node7 -->
<g id="edge6" class="edge">
<title>Node1&#45;&gt;Node7</title>
<path fill="none" stroke="midnightblue" d="M455.95,-91.09C443.11,-85.11 427.86,-78.11 414,-72 402.9,-67.1 390.49,-61.85 380.1,-57.52"/>
<polygon fill="midnightblue" stroke="midnightblue" points="454.7,-94.37 465.24,-95.43 457.66,-88.03 454.7,-94.37"/>
</g>
<!-- Node8 -->
<g id="node8" class="node">
<title>Node8</title>
<g id="a_node8"><a xlink:href="write_8c.html#a7c05ab846328c2543fcee3bbdf7b9334" target="_top" xlink:title="Process the next 0x10 bytes of the ongoing HDMA transfer. This function should be called on HBLANK on...">
<polygon fill="white" stroke="black" points="298,-0.5 298,-19.5 414,-19.5 414,-0.5 298,-0.5"/>
<text text-anchor="middle" x="356" y="-7.5" font-family="Helvetica,sans-Serif" font-size="10.00">resume_hdma_transfer</text>
</a>
</g>
</g>
<!-- Node1&#45;&gt;Node8 -->
<g id="edge7" class="edge">
<title>Node1&#45;&gt;Node8</title>
<path fill="none" stroke="midnightblue" d="M473,-87.3C460.04,-70.15 438.31,-44.54 414,-29 408.02,-25.18 401.2,-22.05 394.4,-19.51"/>
<polygon fill="midnightblue" stroke="midnightblue" points="470.2,-89.4 478.94,-95.39 475.84,-85.26 470.2,-89.4"/>
</g>
<!-- Node4&#45;&gt;Node5 -->
<g id="edge4" class="edge">
<title>Node4&#45;&gt;Node5</title>
<path fill="none" stroke="midnightblue" d="M306.88,-118.19C292.72,-116.49 277.01,-114.59 262.01,-112.78"/>
<polygon fill="midnightblue" stroke="midnightblue" points="306.53,-121.68 316.87,-119.4 307.36,-114.73 306.53,-121.68"/>
</g>
<!-- Node6 -->
<g id="node6" class="node">
<title>Node6</title>
<g id="a_node6"><a xlink:href="execute_8c.html#a62664ca8db705f6c53010a831980587c" target="_top" xlink:title="Executes the next instruction currently pointed by the PC register.">
<polygon fill="white" stroke="black" points="0,-95.5 0,-114.5 95,-114.5 95,-95.5 0,-95.5"/>
<text text-anchor="middle" x="47.5" y="-102.5" font-family="Helvetica,sans-Serif" font-size="10.00">handle_instruction</text>
</a>
</g>
</g>
<!-- Node5&#45;&gt;Node6 -->
<g id="edge5" class="edge">
<title>Node5&#45;&gt;Node6</title>
<path fill="none" stroke="midnightblue" d="M120.56,-105C111.99,-105 103.46,-105 95.41,-105"/>
<polygon fill="midnightblue" stroke="midnightblue" points="120.6,-108.5 130.6,-105 120.6,-101.5 120.6,-108.5"/>
</g>
</g>
</svg>
