<?xml version="1.0" encoding="UTF-8" standalone="no"?>
<!DOCTYPE svg PUBLIC "-//W3C//DTD SVG 1.1//EN"
 "http://www.w3.org/Graphics/SVG/1.1/DTD/svg11.dtd">
<!-- Generated by graphviz version 2.44.0 ()
 -->
<!-- Title: handle_instruction Pages: 1 -->
<svg width="493pt" height="47pt"
 viewBox="0.00 0.00 493.00 47.00" xmlns="http://www.w3.org/2000/svg" xmlns:xlink="http://www.w3.org/1999/xlink">
<g id="graph0" class="graph" transform="scale(1 1) rotate(0) translate(4 43)">
<title>handle_instruction</title>
<polygon fill="white" stroke="transparent" points="-4,4 -4,-43 489,-43 489,4 -4,4"/>
<!-- Node1 -->
<g id="node1" class="node">
<title>Node1</title>
<g id="a_node1"><a xlink:title="Executes the next instruction currently pointed by the PC register.">
<polygon fill="#bfbfbf" stroke="black" points="0,-0.5 0,-19.5 95,-19.5 95,-0.5 0,-0.5"/>
<text text-anchor="middle" x="47.5" y="-7.5" font-family="Helvetica,sans-Serif" font-size="10.00">handle_instruction</text>
</a>
</g>
</g>
<!-- Node2 -->
<g id="node2" class="node">
<title>Node2</title>
<g id="a_node2"><a xlink:href="gb_8h.html#a5a919d32342038b24d05d91dd31550f2" target="_top" xlink:title="Updates the gb struct. This should be called after each instruction. This sets the gb&#45;&gt;current_instru...">
<polygon fill="white" stroke="black" points="131,-0.5 131,-19.5 262,-19.5 262,-0.5 131,-0.5"/>
<text text-anchor="middle" x="196.5" y="-7.5" font-family="Helvetica,sans-Serif" font-size="10.00">update_current_instruction</text>
</a>
</g>
</g>
<!-- Node1&#45;&gt;Node2 -->
<g id="edge1" class="edge">
<title>Node1&#45;&gt;Node2</title>
<path fill="none" stroke="midnightblue" d="M95.01,-10C103.17,-10 111.85,-10 120.56,-10"/>
<polygon fill="midnightblue" stroke="midnightblue" points="120.76,-13.5 130.76,-10 120.76,-6.5 120.76,-13.5"/>
</g>
<!-- Node3 -->
<g id="node3" class="node">
<title>Node3</title>
<g id="a_node3"><a xlink:href="gb_8h.html#ad96445dec9bad864028e5254ab293f51" target="_top" xlink:title=" ">
<polygon fill="white" stroke="black" points="298,-19.5 298,-38.5 376,-38.5 376,-19.5 298,-19.5"/>
<text text-anchor="middle" x="337" y="-26.5" font-family="Helvetica,sans-Serif" font-size="10.00">read_16_force</text>
</a>
</g>
</g>
<!-- Node2&#45;&gt;Node3 -->
<g id="edge2" class="edge">
<title>Node2&#45;&gt;Node3</title>
<path fill="none" stroke="midnightblue" d="M262.29,-18.89C270.8,-20.06 279.41,-21.24 287.59,-22.36"/>
<polygon fill="midnightblue" stroke="midnightblue" points="287.29,-25.85 297.68,-23.74 288.24,-18.92 287.29,-25.85"/>
</g>
<!-- Node4 -->
<g id="node4" class="node">
<title>Node4</title>
<g id="a_node4"><a xlink:href="gb_8h.html#afa5c8e853cfac77001f009a81f3403be" target="_top" xlink:title=" ">
<polygon fill="white" stroke="black" points="412,-0.5 412,-19.5 485,-19.5 485,-0.5 412,-0.5"/>
<text text-anchor="middle" x="448.5" y="-7.5" font-family="Helvetica,sans-Serif" font-size="10.00">read_8_force</text>
</a>
</g>
</g>
<!-- Node2&#45;&gt;Node4 -->
<g id="edge4" class="edge">
<title>Node2&#45;&gt;Node4</title>
<path fill="none" stroke="midnightblue" d="M262.21,-10C305.9,-10 362.52,-10 401.61,-10"/>
<polygon fill="midnightblue" stroke="midnightblue" points="401.65,-13.5 411.65,-10 401.65,-6.5 401.65,-13.5"/>
</g>
<!-- Node3&#45;&gt;Node4 -->
<g id="edge3" class="edge">
<title>Node3&#45;&gt;Node4</title>
<path fill="none" stroke="midnightblue" d="M376.3,-22.35C384.63,-20.91 393.53,-19.37 402.1,-17.88"/>
<polygon fill="midnightblue" stroke="midnightblue" points="402.72,-21.32 411.98,-16.16 401.53,-14.43 402.72,-21.32"/>
</g>
</g>
</svg>
