<?xml version="1.0" encoding="UTF-8" standalone="no"?>
<!DOCTYPE svg PUBLIC "-//W3C//DTD SVG 1.1//EN"
 "http://www.w3.org/Graphics/SVG/1.1/DTD/svg11.dtd">
<!-- Generated by graphviz version 3.0.0 (20220413.0106)
 -->
<!-- Title: get_user_data_dir Pages: 1 -->
<svg width="205pt" height="142pt"
 viewBox="0.00 0.00 205.00 142.00" xmlns="http://www.w3.org/2000/svg" xmlns:xlink="http://www.w3.org/1999/xlink">
<g id="graph0" class="graph" transform="scale(1 1) rotate(0) translate(4 138)">
<title>get_user_data_dir</title>
<polygon fill="white" stroke="transparent" points="-4,4 -4,-138 201,-138 201,4 -4,4"/>
<!-- Node1 -->
<g id="node1" class="node">
<title>Node1</title>
<g id="a_node1"><a xlink:title="Get the user data directory. On Windows, this equals to C:\Users\&lt;username&gt;\AppDataget_user_data_dirBmu....">
<polygon fill="#bfbfbf" stroke="black" points="103,-57.5 103,-76.5 197,-76.5 197,-57.5 103,-57.5"/>
<text text-anchor="middle" x="150" y="-64.5" font-family="Helvetica,sans-Serif" font-size="10.00">get_user_data_dir</text>
</a>
</g>
</g>
<!-- Node2 -->
<g id="node2" class="node">
<title>Node2</title>
<g id="a_node2"><a xlink:href="save__game_8c.html#af2e0c433cb45cebf3042abf21e0c05b6" target="_top" xlink:title="This function attempts to load the following save file: &quot;./saves/&lt;name&gt;.sav&quot; where &lt;name&gt; is the name...">
<polygon fill="white" stroke="black" points="1.5,-114.5 1.5,-133.5 65.5,-133.5 65.5,-114.5 1.5,-114.5"/>
<text text-anchor="middle" x="33.5" y="-121.5" font-family="Helvetica,sans-Serif" font-size="10.00">load_game</text>
</a>
</g>
</g>
<!-- Node1&#45;&gt;Node2 -->
<g id="edge1" class="edge">
<title>Node1&#45;&gt;Node2</title>
<path fill="none" stroke="midnightblue" d="M120.8,-81.04C99.94,-91.42 72.08,-105.29 53.73,-114.43"/>
<polygon fill="midnightblue" stroke="midnightblue" points="122.44,-84.13 129.84,-76.54 119.32,-77.86 122.44,-84.13"/>
</g>
<!-- Node3 -->
<g id="node3" class="node">
<title>Node3</title>
<g id="a_node3"><a xlink:href="savestate_8c.html#a0c706368e9eb8cdccbe565d37e404eca" target="_top" xlink:title="Load a savestate from a file. This function simply reads the file into the gb_cpu_s structure.">
<polygon fill="white" stroke="black" points="5.5,-76.5 5.5,-95.5 61.5,-95.5 61.5,-76.5 5.5,-76.5"/>
<text text-anchor="middle" x="33.5" y="-83.5" font-family="Helvetica,sans-Serif" font-size="10.00">loadstate</text>
</a>
</g>
</g>
<!-- Node1&#45;&gt;Node3 -->
<g id="edge2" class="edge">
<title>Node1&#45;&gt;Node3</title>
<path fill="none" stroke="midnightblue" d="M92.88,-76.31C82.06,-78.11 71.18,-79.91 61.8,-81.47"/>
<polygon fill="midnightblue" stroke="midnightblue" points="93.47,-79.76 102.76,-74.67 92.32,-72.86 93.47,-79.76"/>
</g>
<!-- Node4 -->
<g id="node4" class="node">
<title>Node4</title>
<g id="a_node4"><a xlink:href="save__game_8c.html#a790380e09dfafbb0201c114e93b84197" target="_top" xlink:title="Attempts to save the game. This is done by saving the current RAM to disk. The file is saved to &quot;....">
<polygon fill="white" stroke="black" points="0,-38.5 0,-57.5 67,-57.5 67,-38.5 0,-38.5"/>
<text text-anchor="middle" x="33.5" y="-45.5" font-family="Helvetica,sans-Serif" font-size="10.00">save_game</text>
</a>
</g>
</g>
<!-- Node1&#45;&gt;Node4 -->
<g id="edge3" class="edge">
<title>Node1&#45;&gt;Node4</title>
<path fill="none" stroke="midnightblue" d="M92.88,-57.69C84.08,-56.23 75.24,-54.76 67.2,-53.43"/>
<polygon fill="midnightblue" stroke="midnightblue" points="92.32,-61.14 102.76,-59.33 93.47,-54.24 92.32,-61.14"/>
</g>
<!-- Node5 -->
<g id="node5" class="node">
<title>Node5</title>
<g id="a_node5"><a xlink:href="savestate_8c.html#a1c2c4d3b78812a30ad5cb1ef0441c9f0" target="_top" xlink:title="Save the current GameBoy state to a file. This is a very straight forward function: it simply saves t...">
<polygon fill="white" stroke="black" points="4,-0.5 4,-19.5 63,-19.5 63,-0.5 4,-0.5"/>
<text text-anchor="middle" x="33.5" y="-7.5" font-family="Helvetica,sans-Serif" font-size="10.00">savestate</text>
</a>
</g>
</g>
<!-- Node1&#45;&gt;Node5 -->
<g id="edge4" class="edge">
<title>Node1&#45;&gt;Node5</title>
<path fill="none" stroke="midnightblue" d="M120.8,-52.96C99.94,-42.58 72.08,-28.71 53.73,-19.57"/>
<polygon fill="midnightblue" stroke="midnightblue" points="119.32,-56.14 129.84,-57.46 122.44,-49.87 119.32,-56.14"/>
</g>
</g>
</svg>
