<?xml version="1.0" encoding="UTF-8" standalone="no"?>
<!DOCTYPE svg PUBLIC "-//W3C//DTD SVG 1.1//EN"
 "http://www.w3.org/Graphics/SVG/1.1/DTD/svg11.dtd">
<!-- Generated by graphviz version 2.44.0 ()
 -->
<!-- Title: handle_instruction Pages: 1 -->
<svg width="439pt" height="47pt"
 viewBox="0.00 0.00 439.00 47.00" xmlns="http://www.w3.org/2000/svg" xmlns:xlink="http://www.w3.org/1999/xlink">
<g id="graph0" class="graph" transform="scale(1 1) rotate(0) translate(4 43)">
<title>handle_instruction</title>
<polygon fill="white" stroke="transparent" points="-4,4 -4,-43 435,-43 435,4 -4,4"/>
<!-- Node1 -->
<g id="node1" class="node">
<title>Node1</title>
<g id="a_node1"><a xlink:title="Executes the next instruction currently pointed by the PC register.">
<polygon fill="#bfbfbf" stroke="black" points="0,-0.5 0,-19.5 95,-19.5 95,-0.5 0,-0.5"/>
<text text-anchor="middle" x="47.5" y="-7.5" font-family="Helvetica,sans-Serif" font-size="10.00">handle_instruction</text>
</a>
</g>
</g>
<!-- Node2 -->
<g id="node2" class="node">
<title>Node2</title>
<g id="a_node2"><a xlink:href="gb_8h.html#a5a919d32342038b24d05d91dd31550f2" target="_top" xlink:title="Updates the gb struct. This should be called after each instruction. This sets the gb&#45;&gt;current_instru...">
<polygon fill="white" stroke="black" points="131,-0.5 131,-19.5 262,-19.5 262,-0.5 131,-0.5"/>
<text text-anchor="middle" x="196.5" y="-7.5" font-family="Helvetica,sans-Serif" font-size="10.00">update_current_instruction</text>
</a>
</g>
</g>
<!-- Node1&#45;&gt;Node2 -->
<g id="edge1" class="edge">
<title>Node1&#45;&gt;Node2</title>
<path fill="none" stroke="midnightblue" d="M95.01,-10C103.17,-10 111.85,-10 120.56,-10"/>
<polygon fill="midnightblue" stroke="midnightblue" points="120.76,-13.5 130.76,-10 120.76,-6.5 120.76,-13.5"/>
</g>
<!-- Node3 -->
<g id="node3" class="node">
<title>Node3</title>
<g id="a_node3"><a xlink:href="gb_8h.html#ae9412814e44fdf1354e4471b16914b45" target="_top" xlink:title="Read a 16&#45;bit word from the appropriate memory location. This is the safe way to access the gameboy m...">
<polygon fill="white" stroke="black" points="298,-19.5 298,-38.5 349,-38.5 349,-19.5 298,-19.5"/>
<text text-anchor="middle" x="323.5" y="-26.5" font-family="Helvetica,sans-Serif" font-size="10.00">read_16</text>
</a>
</g>
</g>
<!-- Node2&#45;&gt;Node3 -->
<g id="edge2" class="edge">
<title>Node2&#45;&gt;Node3</title>
<path fill="none" stroke="midnightblue" d="M260.37,-19.56C269.88,-21 279.37,-22.44 287.98,-23.75"/>
<polygon fill="midnightblue" stroke="midnightblue" points="287.56,-27.23 297.97,-25.27 288.61,-20.31 287.56,-27.23"/>
</g>
<!-- Node4 -->
<g id="node4" class="node">
<title>Node4</title>
<g id="a_node4"><a xlink:href="gb_8h.html#a9ff752910cf109fcfec61e099d2fccbc" target="_top" xlink:title="Read an 8&#45;bit word from the appropriate memory location. This is the safe way to access the gameboy m...">
<polygon fill="white" stroke="black" points="385,-0.5 385,-19.5 431,-19.5 431,-0.5 385,-0.5"/>
<text text-anchor="middle" x="408" y="-7.5" font-family="Helvetica,sans-Serif" font-size="10.00">read_8</text>
</a>
</g>
</g>
<!-- Node2&#45;&gt;Node4 -->
<g id="edge4" class="edge">
<title>Node2&#45;&gt;Node4</title>
<path fill="none" stroke="midnightblue" d="M262.07,-10C299.33,-10 344.59,-10 374.51,-10"/>
<polygon fill="midnightblue" stroke="midnightblue" points="374.79,-13.5 384.79,-10 374.79,-6.5 374.79,-13.5"/>
</g>
<!-- Node3&#45;&gt;Node4 -->
<g id="edge3" class="edge">
<title>Node3&#45;&gt;Node4</title>
<path fill="none" stroke="midnightblue" d="M349.25,-23.3C357.28,-21.45 366.31,-19.37 374.8,-17.41"/>
<polygon fill="midnightblue" stroke="midnightblue" points="375.83,-20.77 384.79,-15.11 374.26,-13.95 375.83,-20.77"/>
</g>
</g>
</svg>
