<?xml version="1.0" encoding="UTF-8" standalone="no"?>
<!DOCTYPE svg PUBLIC "-//W3C//DTD SVG 1.1//EN"
 "http://www.w3.org/Graphics/SVG/1.1/DTD/svg11.dtd">
<!-- Generated by graphviz version 2.44.0 ()
 -->
<!-- Title: update_current_instruction Pages: 1 -->
<svg width="308pt" height="47pt"
 viewBox="0.00 0.00 308.00 47.00" xmlns="http://www.w3.org/2000/svg" xmlns:xlink="http://www.w3.org/1999/xlink">
<g id="graph0" class="graph" transform="scale(1 1) rotate(0) translate(4 43)">
<title>update_current_instruction</title>
<polygon fill="white" stroke="transparent" points="-4,4 -4,-43 304,-43 304,4 -4,4"/>
<!-- Node1 -->
<g id="node1" class="node">
<title>Node1</title>
<g id="a_node1"><a xlink:title="Updates the gb struct. This should be called after each instruction. This sets the gb&#45;&gt;current_instru...">
<polygon fill="#bfbfbf" stroke="black" points="0,-0.5 0,-19.5 131,-19.5 131,-0.5 0,-0.5"/>
<text text-anchor="middle" x="65.5" y="-7.5" font-family="Helvetica,sans-Serif" font-size="10.00">update_current_instruction</text>
</a>
</g>
</g>
<!-- Node2 -->
<g id="node2" class="node">
<title>Node2</title>
<g id="a_node2"><a xlink:href="gb_8h.html#ae9412814e44fdf1354e4471b16914b45" target="_top" xlink:title="Read a 16&#45;bit word from the appropriate memory location. This is the safe way to access the gameboy m...">
<polygon fill="white" stroke="black" points="167,-19.5 167,-38.5 218,-38.5 218,-19.5 167,-19.5"/>
<text text-anchor="middle" x="192.5" y="-26.5" font-family="Helvetica,sans-Serif" font-size="10.00">read_16</text>
</a>
</g>
</g>
<!-- Node1&#45;&gt;Node2 -->
<g id="edge1" class="edge">
<title>Node1&#45;&gt;Node2</title>
<path fill="none" stroke="midnightblue" d="M129.37,-19.56C138.88,-21 148.37,-22.44 156.98,-23.75"/>
<polygon fill="midnightblue" stroke="midnightblue" points="156.56,-27.23 166.97,-25.27 157.61,-20.31 156.56,-27.23"/>
</g>
<!-- Node3 -->
<g id="node3" class="node">
<title>Node3</title>
<g id="a_node3"><a xlink:href="gb_8h.html#a9ff752910cf109fcfec61e099d2fccbc" target="_top" xlink:title="Read an 8&#45;bit word from the appropriate memory location. This is the safe way to access the gameboy m...">
<polygon fill="white" stroke="black" points="254,-0.5 254,-19.5 300,-19.5 300,-0.5 254,-0.5"/>
<text text-anchor="middle" x="277" y="-7.5" font-family="Helvetica,sans-Serif" font-size="10.00">read_8</text>
</a>
</g>
</g>
<!-- Node1&#45;&gt;Node3 -->
<g id="edge3" class="edge">
<title>Node1&#45;&gt;Node3</title>
<path fill="none" stroke="midnightblue" d="M131.07,-10C168.33,-10 213.59,-10 243.51,-10"/>
<polygon fill="midnightblue" stroke="midnightblue" points="243.79,-13.5 253.79,-10 243.79,-6.5 243.79,-13.5"/>
</g>
<!-- Node2&#45;&gt;Node3 -->
<g id="edge2" class="edge">
<title>Node2&#45;&gt;Node3</title>
<path fill="none" stroke="midnightblue" d="M218.25,-23.3C226.28,-21.45 235.31,-19.37 243.8,-17.41"/>
<polygon fill="midnightblue" stroke="midnightblue" points="244.83,-20.77 253.79,-15.11 243.26,-13.95 244.83,-20.77"/>
</g>
</g>
</svg>
