<?xml version="1.0" encoding="UTF-8" standalone="no"?>
<!DOCTYPE svg PUBLIC "-//W3C//DTD SVG 1.1//EN"
 "http://www.w3.org/Graphics/SVG/1.1/DTD/svg11.dtd">
<!-- Generated by graphviz version 3.0.0 (20220413.0242)
 -->
<!-- Title: read_8 Pages: 1 -->
<svg width="200pt" height="104pt"
 viewBox="0.00 0.00 200.00 104.00" xmlns="http://www.w3.org/2000/svg" xmlns:xlink="http://www.w3.org/1999/xlink">
<g id="graph0" class="graph" transform="scale(1 1) rotate(0) translate(4 100)">
<title>read_8</title>
<polygon fill="white" stroke="transparent" points="-4,4 -4,-100 196,-100 196,4 -4,4"/>
<!-- Node1 -->
<g id="node1" class="node">
<title>Node1</title>
<g id="a_node1"><a xlink:title="Read an 8&#45;bit word from the appropriate memory location. This is the safe way to access the gameboy m...">
<polygon fill="#bfbfbf" stroke="black" points="146,-38.5 146,-57.5 192,-57.5 192,-38.5 146,-38.5"/>
<text text-anchor="middle" x="169" y="-45.5" font-family="Helvetica,sans-Serif" font-size="10.00">read_8</text>
</a>
</g>
</g>
<!-- Node2 -->
<g id="node2" class="node">
<title>Node2</title>
<g id="a_node2"><a xlink:href="gpu_8c.html#aa5bc80392e446c4a40198e337f59ba90" target="_top" xlink:title="Executes one gpu tick. This should be called every step.">
<polygon fill="white" stroke="black" points="28.5,-76.5 28.5,-95.5 81.5,-95.5 81.5,-76.5 28.5,-76.5"/>
<text text-anchor="middle" x="55" y="-83.5" font-family="Helvetica,sans-Serif" font-size="10.00">gpu_tick</text>
</a>
</g>
</g>
<!-- Node1&#45;&gt;Node2 -->
<g id="edge1" class="edge">
<title>Node1&#45;&gt;Node2</title>
<path fill="none" stroke="midnightblue" d="M136.2,-58.79C118.92,-64.65 97.83,-71.81 81.61,-77.31"/>
<polygon fill="midnightblue" stroke="midnightblue" points="137.53,-62.04 145.87,-55.51 135.28,-55.41 137.53,-62.04"/>
</g>
<!-- Node3 -->
<g id="node3" class="node">
<title>Node3</title>
<g id="a_node3"><a xlink:href="read_8c.html#ae9412814e44fdf1354e4471b16914b45" target="_top" xlink:title="Read a 16&#45;bit word from the appropriate memory location. This is the safe way to access the gameboy m...">
<polygon fill="white" stroke="black" points="29.5,-38.5 29.5,-57.5 80.5,-57.5 80.5,-38.5 29.5,-38.5"/>
<text text-anchor="middle" x="55" y="-45.5" font-family="Helvetica,sans-Serif" font-size="10.00">read_16</text>
</a>
</g>
</g>
<!-- Node1&#45;&gt;Node3 -->
<g id="edge2" class="edge">
<title>Node1&#45;&gt;Node3</title>
<path fill="none" stroke="midnightblue" d="M135.57,-48C118.12,-48 96.93,-48 80.81,-48"/>
<polygon fill="midnightblue" stroke="midnightblue" points="135.87,-51.5 145.87,-48 135.87,-44.5 135.87,-51.5"/>
</g>
<!-- Node4 -->
<g id="node4" class="node">
<title>Node4</title>
<g id="a_node4"><a xlink:href="timer_8c.html#a856acdaf9de870349a8f50eb2fb89d9d" target="_top" xlink:title="Updates the timer (TIMA_OFFSET) and requests an interrupt if needed.">
<polygon fill="white" stroke="black" points="0,-0.5 0,-19.5 110,-19.5 110,-0.5 0,-0.5"/>
<text text-anchor="middle" x="55" y="-7.5" font-family="Helvetica,sans-Serif" font-size="10.00">update_timer_register</text>
</a>
</g>
</g>
<!-- Node1&#45;&gt;Node4 -->
<g id="edge3" class="edge">
<title>Node1&#45;&gt;Node4</title>
<path fill="none" stroke="midnightblue" d="M136.16,-37.2C119.74,-31.63 99.89,-24.89 84.05,-19.52"/>
<polygon fill="midnightblue" stroke="midnightblue" points="135.28,-40.59 145.87,-40.49 137.53,-33.96 135.28,-40.59"/>
</g>
</g>
</svg>
