<?xml version="1.0" encoding="UTF-8" standalone="no"?>
<!DOCTYPE svg PUBLIC "-//W3C//DTD SVG 1.1//EN"
 "http://www.w3.org/Graphics/SVG/1.1/DTD/svg11.dtd">
<!-- Generated by graphviz version 2.50.0 (20220203.2022)
 -->
<!-- Title: get_user_data_dir Pages: 1 -->
<svg width="205pt" height="66pt"
 viewBox="0.00 0.00 205.00 66.00" xmlns="http://www.w3.org/2000/svg" xmlns:xlink="http://www.w3.org/1999/xlink">
<g id="graph0" class="graph" transform="scale(1 1) rotate(0) translate(4 62)">
<title>get_user_data_dir</title>
<polygon fill="white" stroke="transparent" points="-4,4 -4,-62 201,-62 201,4 -4,4"/>
<!-- Node1 -->
<g id="node1" class="node">
<title>Node1</title>
<g id="a_node1"><a xlink:title="Get the user data directory. On Windows, this equals to C:\Users\&lt;username&gt;\AppDataget_user_data_dirBmu....">
<polygon fill="#bfbfbf" stroke="black" points="103,-19.5 103,-38.5 197,-38.5 197,-19.5 103,-19.5"/>
<text text-anchor="middle" x="150" y="-26.5" font-family="Helvetica,sans-Serif" font-size="10.00">get_user_data_dir</text>
</a>
</g>
</g>
<!-- Node2 -->
<g id="node2" class="node">
<title>Node2</title>
<g id="a_node2"><a xlink:href="save__game_8c.html#af2e0c433cb45cebf3042abf21e0c05b6" target="_top" xlink:title="This function attempts to load the following save file: &quot;./saves/&lt;name&gt;.sav&quot; where &lt;name&gt; is the name...">
<polygon fill="white" stroke="black" points="1.5,-38.5 1.5,-57.5 65.5,-57.5 65.5,-38.5 1.5,-38.5"/>
<text text-anchor="middle" x="33.5" y="-45.5" font-family="Helvetica,sans-Serif" font-size="10.00">load_game</text>
</a>
</g>
</g>
<!-- Node1&#45;&gt;Node2 -->
<g id="edge1" class="edge">
<title>Node1&#45;&gt;Node2</title>
<path fill="none" stroke="midnightblue" d="M92.76,-38.33C83.49,-39.87 74.19,-41.41 65.82,-42.8"/>
<polygon fill="midnightblue" stroke="midnightblue" points="93.47,-41.76 102.76,-36.67 92.32,-34.86 93.47,-41.76"/>
</g>
<!-- Node3 -->
<g id="node3" class="node">
<title>Node3</title>
<g id="a_node3"><a xlink:href="save__game_8c.html#a790380e09dfafbb0201c114e93b84197" target="_top" xlink:title="Attempts to save the game. This is done by saving the current RAM to disk. The file is saved to &quot;....">
<polygon fill="white" stroke="black" points="0,-0.5 0,-19.5 67,-19.5 67,-0.5 0,-0.5"/>
<text text-anchor="middle" x="33.5" y="-7.5" font-family="Helvetica,sans-Serif" font-size="10.00">save_game</text>
</a>
</g>
</g>
<!-- Node1&#45;&gt;Node3 -->
<g id="edge2" class="edge">
<title>Node1&#45;&gt;Node3</title>
<path fill="none" stroke="midnightblue" d="M92.88,-19.69C84.08,-18.23 75.24,-16.76 67.2,-15.43"/>
<polygon fill="midnightblue" stroke="midnightblue" points="92.32,-23.14 102.76,-21.33 93.47,-16.24 92.32,-23.14"/>
</g>
</g>
</svg>
