<?xml version="1.0" encoding="UTF-8" standalone="no"?>
<!DOCTYPE svg PUBLIC "-//W3C//DTD SVG 1.1//EN"
 "http://www.w3.org/Graphics/SVG/1.1/DTD/svg11.dtd">
<!-- Generated by graphviz version 2.44.0 ()
 -->
<!-- Title: read_8_force Pages: 1 -->
<svg width="233pt" height="180pt"
 viewBox="0.00 0.00 233.00 180.00" xmlns="http://www.w3.org/2000/svg" xmlns:xlink="http://www.w3.org/1999/xlink">
<g id="graph0" class="graph" transform="scale(1 1) rotate(0) translate(4 176)">
<title>read_8_force</title>
<polygon fill="white" stroke="transparent" points="-4,4 -4,-176 229,-176 229,4 -4,4"/>
<!-- Node1 -->
<g id="node1" class="node">
<title>Node1</title>
<g id="a_node1"><a xlink:title=" ">
<polygon fill="#bfbfbf" stroke="black" points="152,-76.5 152,-95.5 225,-95.5 225,-76.5 152,-76.5"/>
<text text-anchor="middle" x="188.5" y="-83.5" font-family="Helvetica,sans-Serif" font-size="10.00">read_8_force</text>
</a>
</g>
</g>
<!-- Node2 -->
<g id="node2" class="node">
<title>Node2</title>
<g id="a_node2"><a xlink:href="gb_8h.html#a8ea764b4703152373fe390fd4a8e3fa5" target="_top" xlink:title="Transfer data from memory to VRAM with an arbitrary length. This function is only available on CGB.">
<polygon fill="white" stroke="black" points="1.5,-152.5 1.5,-171.5 114.5,-171.5 114.5,-152.5 1.5,-152.5"/>
<text text-anchor="middle" x="58" y="-159.5" font-family="Helvetica,sans-Serif" font-size="10.00">initiate_hdma_transfer</text>
</a>
</g>
</g>
<!-- Node1&#45;&gt;Node2 -->
<g id="edge1" class="edge">
<title>Node1&#45;&gt;Node2</title>
<path fill="none" stroke="midnightblue" d="M169.98,-102.9C156.23,-115.4 136.1,-132.09 116,-143 109.22,-146.68 101.59,-149.82 94.18,-152.43"/>
<polygon fill="midnightblue" stroke="midnightblue" points="172.73,-105.12 177.66,-95.74 167.96,-100 172.73,-105.12"/>
</g>
<!-- Node3 -->
<g id="node3" class="node">
<title>Node3</title>
<g id="a_node3"><a xlink:href="gb_8h.html#a2939f2f449cb6ca30d69285b28797fff" target="_top" xlink:title="Transfer data from memory to OAM with a fixed length. This function is available on both CGB and DMG.">
<polygon fill="white" stroke="black" points="1.5,-114.5 1.5,-133.5 114.5,-133.5 114.5,-114.5 1.5,-114.5"/>
<text text-anchor="middle" x="58" y="-121.5" font-family="Helvetica,sans-Serif" font-size="10.00">process_dma_transfer</text>
</a>
</g>
</g>
<!-- Node1&#45;&gt;Node3 -->
<g id="edge2" class="edge">
<title>Node1&#45;&gt;Node3</title>
<path fill="none" stroke="midnightblue" d="M145.11,-98.54C127.63,-103.7 107.7,-109.6 91.42,-114.41"/>
<polygon fill="midnightblue" stroke="midnightblue" points="146.48,-101.78 155.07,-95.59 144.49,-95.07 146.48,-101.78"/>
</g>
<!-- Node4 -->
<g id="node4" class="node">
<title>Node4</title>
<g id="a_node4"><a xlink:href="gb_8h.html#ad96445dec9bad864028e5254ab293f51" target="_top" xlink:title=" ">
<polygon fill="white" stroke="black" points="19,-76.5 19,-95.5 97,-95.5 97,-76.5 19,-76.5"/>
<text text-anchor="middle" x="58" y="-83.5" font-family="Helvetica,sans-Serif" font-size="10.00">read_16_force</text>
</a>
</g>
</g>
<!-- Node1&#45;&gt;Node4 -->
<g id="edge3" class="edge">
<title>Node1&#45;&gt;Node4</title>
<path fill="none" stroke="midnightblue" d="M141.45,-86C126.98,-86 111.17,-86 97.3,-86"/>
<polygon fill="midnightblue" stroke="midnightblue" points="141.71,-89.5 151.71,-86 141.71,-82.5 141.71,-89.5"/>
</g>
<!-- Node5 -->
<g id="node5" class="node">
<title>Node5</title>
<g id="a_node5"><a xlink:href="gb_8h.html#a5cb8f3247967b362794183007d8941e0" target="_top" xlink:title="Requests an interrupt by writing the corresponding value to the IF register.">
<polygon fill="white" stroke="black" points="13.5,-38.5 13.5,-57.5 102.5,-57.5 102.5,-38.5 13.5,-38.5"/>
<text text-anchor="middle" x="58" y="-45.5" font-family="Helvetica,sans-Serif" font-size="10.00">request_interrupt</text>
</a>
</g>
</g>
<!-- Node1&#45;&gt;Node5 -->
<g id="edge4" class="edge">
<title>Node1&#45;&gt;Node5</title>
<path fill="none" stroke="midnightblue" d="M145.11,-73.46C127.63,-68.3 107.7,-62.4 91.42,-57.59"/>
<polygon fill="midnightblue" stroke="midnightblue" points="144.49,-76.93 155.07,-76.41 146.48,-70.22 144.49,-76.93"/>
</g>
<!-- Node6 -->
<g id="node6" class="node">
<title>Node6</title>
<g id="a_node6"><a xlink:href="gb_8h.html#a7c05ab846328c2543fcee3bbdf7b9334" target="_top" xlink:title="Process the next 0x10 bytes of the ongoing HDMA transfer. This function should be called on HBLANK on...">
<polygon fill="white" stroke="black" points="0,-0.5 0,-19.5 116,-19.5 116,-0.5 0,-0.5"/>
<text text-anchor="middle" x="58" y="-7.5" font-family="Helvetica,sans-Serif" font-size="10.00">resume_hdma_transfer</text>
</a>
</g>
</g>
<!-- Node1&#45;&gt;Node6 -->
<g id="edge5" class="edge">
<title>Node1&#45;&gt;Node6</title>
<path fill="none" stroke="midnightblue" d="M169.98,-69.1C156.23,-56.6 136.1,-39.91 116,-29 109.22,-25.32 101.59,-22.18 94.18,-19.57"/>
<polygon fill="midnightblue" stroke="midnightblue" points="167.96,-72 177.66,-76.26 172.73,-66.88 167.96,-72"/>
</g>
</g>
</svg>
